{"scene":0,"asset":{"generator":"ImageToStl.com","version":"2.0"},"scenes":[{"name":"Scene","nodes":[0]}],"nodes":[{"name":"Node0","children":[1]},{"name":"Node1","mesh":0}],"materials":[{"name":"EvilScrMan","pbrMetallicRoughness":{"baseColorFactor":[0.17406,0.17406,0.17406,1.0],"metallicFactor":0.35,"roughnessFactor":0.6975},"emissiveFactor":[0.0,0.0,0.0],"doubleSided":true}],"meshes":[{"name":"Mesh0","primitives":[{"indices":3,"material":0,"attributes":{"POSITION":0,"NORMAL":1,"TEXCOORD_0":2}}]}],"accessors":[{"bufferView":0,"componentType":5126,"count":8033,"type":"VEC3","min":[-0.21367973,-0.19121963,-0.200872],"max":[0.21367973,0.16202664,0.12595555]},{"bufferView":1,"componentType":5126,"count":8033,"type":"VEC3"},{"bufferView":2,"componentType":5126,"count":8033,"type":"VEC2"},{"bufferView":3,"componentType":5123,"count":137124,"type":"SCALAR"}],"bufferViews":[{"target":34962,"buffer":0,"byteLength":96396,"byteOffset":0},{"target":34962,"buffer":0,"byteLength":96396,"byteOffset":96396},{"target":34962,"buffer":0,"byteLength":64264,"byteOffset":192792},{"target":34963,"buffer":0,"byteLength":274248,"byteOffset":257056}],"buffers":[{"byteLength":531304,"uri":"data:application/octet-stream;base64,"}]}